<svg width="20" height="20" viewBox="0 0 20 20" fill="none" xmlns="http://www.w3.org/2000/svg">
<rect width="20" height="20" rx="10" fill="white"/>
<path d="M7.22839 9.941C7.22839 8.67967 7.43372 7.697 7.84439 6.993C8.25505 6.28167 8.97372 5.926 10.0004 5.926C11.0197 5.926 11.7347 6.28167 12.1454 6.993C12.5561 7.697 12.7614 8.67967 12.7614 9.941C12.7614 11.2243 12.5561 12.2217 12.1454 12.933C11.7347 13.6443 11.0197 14 10.0004 14C8.97372 14 8.25505 13.6443 7.84439 12.933C7.43372 12.2217 7.22839 11.2243 7.22839 9.941ZM11.7714 9.941C11.7714 9.303 11.7274 8.764 11.6394 8.324C11.5587 7.87667 11.3864 7.51733 11.1224 7.246C10.8657 6.97467 10.4917 6.839 10.0004 6.839C9.50172 6.839 9.12039 6.97467 8.85639 7.246C8.59972 7.51733 8.42739 7.87667 8.33939 8.324C8.25872 8.764 8.21839 9.303 8.21839 9.941C8.21839 10.601 8.25872 11.1547 8.33939 11.602C8.42739 12.0493 8.59972 12.4087 8.85639 12.68C9.12039 12.9513 9.50172 13.087 10.0004 13.087C10.4917 13.087 10.8657 12.9513 11.1224 12.68C11.3864 12.4087 11.5587 12.0493 11.6394 11.602C11.7274 11.1547 11.7714 10.601 11.7714 9.941Z" fill="#575445"/>
</svg>
